<svg width="12" height="11" viewBox="0 0 12 11" fill="none" xmlns="http://www.w3.org/2000/svg">
<mask id="path-1-inside-1_49_107" fill="white">
<path d="M5.74438 10.3283L0.687988 0.215515H11.1379L5.74438 10.3283Z"/>
</mask>
<path d="M0.687988 0.215515V-7.78448H-12.2563L-6.46743 3.79322L0.687988 0.215515ZM5.74438 10.3283L-1.41104 13.906L5.51508 27.7582L12.8032 14.093L5.74438 10.3283ZM11.1379 0.215515L18.1967 3.98022L24.4712 -7.78448H11.1379V0.215515ZM-6.46743 3.79322L-1.41104 13.906L12.8998 6.75059L7.84341 -3.36219L-6.46743 3.79322ZM12.8032 14.093L18.1967 3.98022L4.07904 -3.54919L-1.31444 6.56359L12.8032 14.093ZM0.687988 8.21552H11.1379V-7.78448H0.687988V8.21552Z" fill="black" mask="url(#path-1-inside-1_49_107)"/>
</svg>
