<svg width="428" height="267" viewBox="0 0 428 267" fill="none" xmlns="http://www.w3.org/2000/svg">
<rect width="428" height="267" rx="6" fill="#FBFBF8"/>
<path d="M32.8783 77.6837L36.0983 69.1857H31.4363V67.6737H38.4363V67.8977L34.7963 77.6837H32.8783ZM44.1117 76.3397C45.6331 76.3397 46.3937 75.1917 46.3937 72.8957V72.4057C46.3937 71.3324 46.1931 70.497 45.7917 69.8997C45.3904 69.293 44.8211 68.9897 44.0837 68.9897C43.3277 68.9897 42.7491 69.2837 42.3477 69.8717C41.9464 70.4597 41.7457 71.309 41.7457 72.4197V72.9237C41.7457 74.0437 41.9511 74.893 42.3617 75.4717C42.7724 76.0504 43.3557 76.3397 44.1117 76.3397ZM44.0697 77.8237C42.7911 77.8237 41.7691 77.385 41.0037 76.5077C40.2477 75.6304 39.8697 74.4404 39.8697 72.9377V72.4337C39.8697 70.931 40.2524 69.741 41.0177 68.8637C41.7831 67.977 42.8004 67.5337 44.0697 67.5337C45.3484 67.5337 46.3657 67.9724 47.1217 68.8497C47.8777 69.7177 48.2557 70.8984 48.2557 72.3917V72.8957C48.2557 74.4077 47.8824 75.607 47.1357 76.4937C46.3891 77.3804 45.3671 77.8237 44.0697 77.8237Z" fill="black"/>
<path d="M34.3564 57.3509C33.3018 57.3509 32.4104 57.0895 31.6824 56.5669C30.9638 56.0442 30.6044 55.3162 30.6044 54.3829C30.6044 53.7669 30.7724 53.2395 31.1084 52.8009C31.4444 52.3622 31.9018 52.0402 32.4804 51.8349C31.4911 51.4429 30.9964 50.7475 30.9964 49.7489C30.9964 48.9369 31.3278 48.2882 31.9904 47.8029C32.6531 47.3082 33.4418 47.0609 34.3564 47.0609C35.2898 47.0609 36.0784 47.3035 36.7224 47.7889C37.3758 48.2742 37.7024 48.9182 37.7024 49.7209C37.7024 50.6915 37.2078 51.3915 36.2184 51.8209C36.8158 52.0355 37.2731 52.3575 37.5904 52.7869C37.9171 53.2069 38.0804 53.7202 38.0804 54.3269C38.0804 55.2789 37.7258 56.0209 37.0164 56.5529C36.3071 57.0849 35.4204 57.3509 34.3564 57.3509ZM34.3564 55.9509C34.9071 55.9509 35.3551 55.7969 35.7004 55.4889C36.0458 55.1809 36.2184 54.7562 36.2184 54.2149C36.2184 53.6829 36.0458 53.2675 35.7004 52.9689C35.3551 52.6609 34.9118 52.5069 34.3704 52.5069C33.8384 52.5069 33.3904 52.6609 33.0264 52.9689C32.6624 53.2675 32.4804 53.6875 32.4804 54.2289C32.4804 54.7702 32.6578 55.1949 33.0124 55.5029C33.3764 55.8015 33.8244 55.9509 34.3564 55.9509ZM34.3844 51.2889C34.8511 51.2889 35.2244 51.1582 35.5044 50.8969C35.7938 50.6355 35.9384 50.2809 35.9384 49.8329C35.9384 49.4129 35.7891 49.0722 35.4904 48.8109C35.1918 48.5402 34.8138 48.4049 34.3564 48.4049C33.8991 48.4049 33.5211 48.5355 33.2224 48.7969C32.9238 49.0582 32.7744 49.4082 32.7744 49.8469C32.7744 50.2855 32.9284 50.6355 33.2364 50.8969C33.5538 51.1582 33.9364 51.2889 34.3844 51.2889ZM44.3271 55.8669C45.8484 55.8669 46.6091 54.7189 46.6091 52.4229V51.9329C46.6091 50.8595 46.4084 50.0242 46.0071 49.4269C45.6057 48.8202 45.0364 48.5169 44.2991 48.5169C43.5431 48.5169 42.9644 48.8109 42.5631 49.3989C42.1617 49.9869 41.9611 50.8362 41.9611 51.9469V52.4509C41.9611 53.5709 42.1664 54.4202 42.5771 54.9989C42.9877 55.5775 43.5711 55.8669 44.3271 55.8669ZM44.2851 57.3509C43.0064 57.3509 41.9844 56.9122 41.2191 56.0349C40.4631 55.1575 40.0851 53.9675 40.0851 52.4649V51.9609C40.0851 50.4582 40.4677 49.2682 41.2331 48.3909C41.9984 47.5042 43.0157 47.0609 44.2851 47.0609C45.5637 47.0609 46.5811 47.4995 47.3371 48.3769C48.0931 49.2449 48.4711 50.4255 48.4711 51.9189V52.4229C48.4711 53.9349 48.0977 55.1342 47.3511 56.0209C46.6044 56.9075 45.5824 57.3509 44.2851 57.3509Z" fill="black"/>
<path d="M34.1884 37.717C33.1711 37.717 32.3638 37.479 31.7664 37.003C31.1691 36.527 30.8098 35.855 30.6884 34.987H32.4384C32.6344 35.8457 33.2084 36.275 34.1604 36.275C35.6164 36.275 36.3584 35.1317 36.3864 32.845C35.8731 33.685 35.0518 34.105 33.9224 34.105C32.9424 34.105 32.1444 33.811 31.5284 33.223C30.9124 32.6257 30.6044 31.837 30.6044 30.857C30.6044 29.8304 30.9404 29.0044 31.6124 28.379C32.2844 27.7444 33.1851 27.427 34.3144 27.427C35.6024 27.427 36.5731 27.833 37.2264 28.645C37.8891 29.457 38.2204 30.6004 38.2204 32.075V32.593C38.2204 34.2357 37.8704 35.5004 37.1704 36.387C36.4704 37.2737 35.4764 37.717 34.1884 37.717ZM32.9424 32.257C33.2878 32.621 33.7451 32.803 34.3144 32.803C34.8838 32.803 35.3458 32.6304 35.7004 32.285C36.0644 31.9397 36.2464 31.4917 36.2464 30.941C36.2464 30.2784 36.0691 29.7604 35.7144 29.387C35.3598 29.0044 34.8884 28.813 34.3004 28.813C33.7404 28.813 33.2878 28.995 32.9424 29.359C32.6064 29.723 32.4384 30.2037 32.4384 30.801C32.4384 31.4077 32.6064 31.893 32.9424 32.257ZM44.6689 36.247C46.1902 36.247 46.9509 35.099 46.9509 32.803V32.313C46.9509 31.2397 46.7502 30.4044 46.3489 29.807C45.9475 29.2004 45.3782 28.897 44.6409 28.897C43.8849 28.897 43.3062 29.191 42.9049 29.779C42.5035 30.367 42.3029 31.2164 42.3029 32.327V32.831C42.3029 33.951 42.5082 34.8004 42.9189 35.379C43.3295 35.9577 43.9129 36.247 44.6689 36.247ZM44.6269 37.731C43.3482 37.731 42.3262 37.2924 41.5609 36.415C40.8049 35.5377 40.4269 34.3477 40.4269 32.845V32.341C40.4269 30.8384 40.8095 29.6484 41.5749 28.771C42.3402 27.8844 43.3575 27.441 44.6269 27.441C45.9055 27.441 46.9229 27.8797 47.6789 28.757C48.4349 29.625 48.8129 30.8057 48.8129 32.299V32.803C48.8129 34.315 48.4395 35.5144 47.6929 36.401C46.9462 37.2877 45.9242 37.731 44.6269 37.731Z" fill="black"/>
<path d="M34.5944 97.4435C33.2224 97.4435 32.2238 97.0235 31.5984 96.1835C30.9824 95.3342 30.6744 94.1908 30.6744 92.7535V92.5155C30.6744 90.8262 31.0571 89.5102 31.8224 88.5675C32.5878 87.6248 33.5864 87.1535 34.8184 87.1535C35.7424 87.1535 36.4844 87.3775 37.0444 87.8255C37.6138 88.2735 37.9591 88.9315 38.0804 89.7995H36.3444C36.2511 89.3982 36.0831 89.0995 35.8404 88.9035C35.6071 88.6982 35.2618 88.5955 34.8044 88.5955C34.1231 88.5955 33.5771 88.8942 33.1664 89.4915C32.7651 90.0888 32.5504 90.9475 32.5224 92.0675C33.0358 91.2088 33.8618 90.7795 35.0004 90.7795C35.9618 90.7795 36.7504 91.0828 37.3664 91.6895C37.9824 92.2868 38.2904 93.0708 38.2904 94.0415C38.2904 95.0588 37.9544 95.8802 37.2824 96.5055C36.6198 97.1308 35.7238 97.4435 34.5944 97.4435ZM34.5664 96.0715C35.1264 96.0715 35.5791 95.8895 35.9244 95.5255C36.2698 95.1615 36.4424 94.6808 36.4424 94.0835C36.4424 93.4768 36.2698 92.9915 35.9244 92.6275C35.5884 92.2542 35.1358 92.0675 34.5664 92.0675C33.9971 92.0675 33.5304 92.2495 33.1664 92.6135C32.8118 92.9682 32.6344 93.4208 32.6344 93.9715C32.6344 94.6248 32.8118 95.1382 33.1664 95.5115C33.5211 95.8848 33.9878 96.0715 34.5664 96.0715ZM44.5868 95.9595C46.1082 95.9595 46.8688 94.8115 46.8688 92.5155V92.0255C46.8688 90.9522 46.6682 90.1168 46.2668 89.5195C45.8655 88.9128 45.2962 88.6095 44.5588 88.6095C43.8028 88.6095 43.2242 88.9035 42.8228 89.4915C42.4215 90.0795 42.2208 90.9288 42.2208 92.0395V92.5435C42.2208 93.6635 42.4262 94.5128 42.8368 95.0915C43.2475 95.6702 43.8308 95.9595 44.5868 95.9595ZM44.5448 97.4435C43.2662 97.4435 42.2442 97.0048 41.4788 96.1275C40.7228 95.2502 40.3448 94.0602 40.3448 92.5575V92.0535C40.3448 90.5508 40.7275 89.3608 41.4928 88.4835C42.2582 87.5968 43.2755 87.1535 44.5448 87.1535C45.8235 87.1535 46.8408 87.5922 47.5968 88.4695C48.3528 89.3375 48.7308 90.5182 48.7308 92.0115V92.5155C48.7308 94.0275 48.3575 95.2268 47.6108 96.1135C46.8642 97.0002 45.8422 97.4435 44.5448 97.4435Z" fill="black"/>
<path d="M35.3504 138.249V136.219H30.3944V135.561L34.8184 128.239H37.1564V134.833H38.5004V136.219H37.1564V138.249H35.3504ZM32.3824 134.833H35.3784V129.653L32.3824 134.833ZM44.5868 136.905C46.1082 136.905 46.8688 135.757 46.8688 133.461V132.971C46.8688 131.898 46.6682 131.063 46.2668 130.465C45.8655 129.859 45.2962 129.555 44.5588 129.555C43.8028 129.555 43.2242 129.849 42.8228 130.437C42.4215 131.025 42.2208 131.875 42.2208 132.985V133.489C42.2208 134.609 42.4262 135.459 42.8368 136.037C43.2475 136.616 43.8308 136.905 44.5868 136.905ZM44.5448 138.389C43.2662 138.389 42.2442 137.951 41.4788 137.073C40.7228 136.196 40.3448 135.006 40.3448 133.503V132.999C40.3448 131.497 40.7275 130.307 41.4928 129.429C42.2582 128.543 43.2755 128.099 44.5448 128.099C45.8235 128.099 46.8408 128.538 47.5968 129.415C48.3528 130.283 48.7308 131.464 48.7308 132.957V133.461C48.7308 134.973 48.3575 136.173 47.6108 137.059C46.8642 137.946 45.8422 138.389 44.5448 138.389Z" fill="black"/>
<path d="M34.0344 117.063C32.9051 117.063 32.0418 116.788 31.4444 116.237C30.8471 115.687 30.5204 114.959 30.4644 114.053H32.2004C32.2844 114.567 32.4571 114.959 32.7184 115.229C32.9891 115.491 33.4231 115.621 34.0204 115.621C34.5898 115.621 35.0331 115.439 35.3504 115.075C35.6678 114.711 35.8264 114.217 35.8264 113.591C35.8264 112.985 35.6631 112.504 35.3364 112.149C35.0098 111.795 34.5711 111.617 34.0204 111.617C33.1338 111.617 32.4384 111.907 31.9344 112.485H30.9824L31.0664 106.913H37.1424V108.383H32.4944L32.4804 111.099C32.9658 110.539 33.6844 110.259 34.6364 110.259C35.5511 110.259 36.2931 110.563 36.8624 111.169C37.4318 111.767 37.7164 112.583 37.7164 113.619C37.7164 114.665 37.3758 115.5 36.6944 116.125C36.0131 116.751 35.1264 117.063 34.0344 117.063ZM44.0673 115.579C45.5886 115.579 46.3493 114.431 46.3493 112.135V111.645C46.3493 110.572 46.1486 109.737 45.7473 109.139C45.346 108.533 44.7766 108.229 44.0393 108.229C43.2833 108.229 42.7046 108.523 42.3033 109.111C41.902 109.699 41.7013 110.549 41.7013 111.659V112.163C41.7013 113.283 41.9066 114.133 42.3173 114.711C42.728 115.29 43.3113 115.579 44.0673 115.579ZM44.0253 117.063C42.7466 117.063 41.7246 116.625 40.9593 115.747C40.2033 114.87 39.8253 113.68 39.8253 112.177V111.673C39.8253 110.171 40.208 108.981 40.9733 108.103C41.7386 107.217 42.756 106.773 44.0253 106.773C45.304 106.773 46.3213 107.212 47.0773 108.089C47.8333 108.957 48.2113 110.138 48.2113 111.631V112.135C48.2113 113.647 47.838 114.847 47.0913 115.733C46.3446 116.62 45.3226 117.063 44.0253 117.063Z" fill="black"/>
<path d="M34.2164 158.009C33.0498 158.009 32.1398 157.715 31.4864 157.127C30.8424 156.539 30.4971 155.755 30.4504 154.775H32.1444C32.2004 155.335 32.3918 155.783 32.7184 156.119C33.0451 156.446 33.5304 156.609 34.1744 156.609C34.8091 156.609 35.2851 156.469 35.6024 156.189C35.9198 155.9 36.0784 155.498 36.0784 154.985C36.0784 153.893 35.4764 153.347 34.2724 153.347H33.5024V152.017H34.2164C35.3271 152.017 35.8824 151.527 35.8824 150.547C35.8824 150.127 35.7471 149.786 35.4764 149.525C35.2151 149.264 34.8324 149.133 34.3284 149.133C33.8058 149.133 33.3764 149.282 33.0404 149.581C32.7138 149.87 32.5224 150.272 32.4664 150.785H30.8144C30.8611 149.889 31.2018 149.156 31.8364 148.587C32.4711 148.008 33.3111 147.719 34.3564 147.719C35.3738 147.719 36.1764 147.976 36.7644 148.489C37.3618 149.002 37.6604 149.642 37.6604 150.407C37.6604 151.452 37.1191 152.18 36.0364 152.591C36.6338 152.731 37.1051 153.011 37.4504 153.431C37.7958 153.842 37.9684 154.369 37.9684 155.013C37.9684 155.937 37.6278 156.67 36.9464 157.211C36.2744 157.743 35.3644 158.009 34.2164 158.009ZM44.4091 156.525C45.9304 156.525 46.6911 155.377 46.6911 153.081V152.591C46.6911 151.518 46.4904 150.682 46.0891 150.085C45.6878 149.478 45.1184 149.175 44.3811 149.175C43.6251 149.175 43.0464 149.469 42.6451 150.057C42.2438 150.645 42.0431 151.494 42.0431 152.605V153.109C42.0431 154.229 42.2484 155.078 42.6591 155.657C43.0698 156.236 43.6531 156.525 44.4091 156.525ZM44.3671 158.009C43.0884 158.009 42.0664 157.57 41.3011 156.693C40.5451 155.816 40.1671 154.626 40.1671 153.123V152.619C40.1671 151.116 40.5498 149.926 41.3151 149.049C42.0804 148.162 43.0978 147.719 44.3671 147.719C45.6458 147.719 46.6631 148.158 47.4191 149.035C48.1751 149.903 48.5531 151.084 48.5531 152.577V153.081C48.5531 154.593 48.1798 155.792 47.4331 156.679C46.6864 157.566 45.6644 158.009 44.3671 158.009Z" fill="black"/>
<path d="M30.1704 177.489V177.153L33.9504 173.163C34.9678 172.089 35.4764 171.142 35.4764 170.321C35.4764 169.845 35.3458 169.471 35.0844 169.201C34.8231 168.93 34.4544 168.795 33.9784 168.795C32.9424 168.795 32.3451 169.457 32.1864 170.783H30.4784C30.5438 169.691 30.8891 168.846 31.5144 168.249C32.1398 167.642 32.9798 167.339 34.0344 167.339C35.0611 167.339 35.8684 167.609 36.4564 168.151C37.0444 168.683 37.3384 169.397 37.3384 170.293C37.3384 171.422 36.6851 172.617 35.3784 173.877L33.1524 176.047H37.4084V177.489H30.1704ZM43.7118 176.145C45.2332 176.145 45.9938 174.997 45.9938 172.701V172.211C45.9938 171.137 45.7932 170.302 45.3918 169.705C44.9905 169.098 44.4212 168.795 43.6838 168.795C42.9278 168.795 42.3492 169.089 41.9478 169.677C41.5465 170.265 41.3458 171.114 41.3458 172.225V172.729C41.3458 173.849 41.5512 174.698 41.9618 175.277C42.3725 175.855 42.9558 176.145 43.7118 176.145ZM43.6698 177.629C42.3912 177.629 41.3692 177.19 40.6038 176.313C39.8478 175.435 39.4698 174.245 39.4698 172.743V172.239C39.4698 170.736 39.8525 169.546 40.6178 168.669C41.3832 167.782 42.4005 167.339 43.6698 167.339C44.9485 167.339 45.9658 167.777 46.7218 168.655C47.4778 169.523 47.8558 170.703 47.8558 172.197V172.701C47.8558 174.213 47.4825 175.412 46.7358 176.299C45.9892 177.185 44.9672 177.629 43.6698 177.629Z" fill="black"/>
<path d="M34.6623 197.109V188.947L32.5483 190.389V188.751L34.8723 187.099H36.5383V197.109H34.6623ZM43.6916 195.765C45.2129 195.765 45.9736 194.617 45.9736 192.321V191.831C45.9736 190.757 45.7729 189.922 45.3716 189.325C44.9702 188.718 44.4009 188.415 43.6636 188.415C42.9076 188.415 42.3289 188.709 41.9276 189.297C41.5262 189.885 41.3256 190.734 41.3256 191.845V192.349C41.3256 193.469 41.5309 194.318 41.9416 194.897C42.3522 195.475 42.9356 195.765 43.6916 195.765ZM43.6496 197.249C42.3709 197.249 41.3489 196.81 40.5836 195.933C39.8276 195.055 39.4496 193.865 39.4496 192.363V191.859C39.4496 190.356 39.8322 189.166 40.5976 188.289C41.3629 187.402 42.3802 186.959 43.6496 186.959C44.9282 186.959 45.9456 187.397 46.7016 188.275C47.4576 189.143 47.8356 190.323 47.8356 191.817V192.321C47.8356 193.833 47.4622 195.032 46.7156 195.919C45.9689 196.805 44.9469 197.249 43.6496 197.249Z" fill="black"/>
<path d="M231.898 232.083L235.118 223.585H230.456V222.073H237.456V222.297L233.816 232.083H231.898Z" fill="black"/>
<path d="M259.056 232.223C258.001 232.223 257.11 231.962 256.382 231.439C255.663 230.916 255.304 230.188 255.304 229.255C255.304 228.639 255.472 228.112 255.808 227.673C256.144 227.234 256.601 226.912 257.18 226.707C256.191 226.315 255.696 225.62 255.696 224.621C255.696 223.809 256.027 223.16 256.69 222.675C257.353 222.18 258.141 221.933 259.056 221.933C259.989 221.933 260.778 222.176 261.422 222.661C262.075 223.146 262.402 223.79 262.402 224.593C262.402 225.564 261.907 226.264 260.918 226.693C261.515 226.908 261.973 227.23 262.29 227.659C262.617 228.079 262.78 228.592 262.78 229.199C262.78 230.151 262.425 230.893 261.716 231.425C261.007 231.957 260.12 232.223 259.056 232.223ZM259.056 230.823C259.607 230.823 260.055 230.669 260.4 230.361C260.745 230.053 260.918 229.628 260.918 229.087C260.918 228.555 260.745 228.14 260.4 227.841C260.055 227.533 259.611 227.379 259.07 227.379C258.538 227.379 258.09 227.533 257.726 227.841C257.362 228.14 257.18 228.56 257.18 229.101C257.18 229.642 257.357 230.067 257.712 230.375C258.076 230.674 258.524 230.823 259.056 230.823ZM259.084 226.161C259.551 226.161 259.924 226.03 260.204 225.769C260.493 225.508 260.638 225.153 260.638 224.705C260.638 224.285 260.489 223.944 260.19 223.683C259.891 223.412 259.513 223.277 259.056 223.277C258.599 223.277 258.221 223.408 257.922 223.669C257.623 223.93 257.474 224.28 257.474 224.719C257.474 225.158 257.628 225.508 257.936 225.769C258.253 226.03 258.636 226.161 259.084 226.161Z" fill="black"/>
<path d="M283.498 232.209C282.481 232.209 281.673 231.971 281.076 231.495C280.479 231.019 280.119 230.347 279.998 229.479H281.748C281.944 230.338 282.518 230.767 283.47 230.767C284.926 230.767 285.668 229.624 285.696 227.337C285.183 228.177 284.361 228.597 283.232 228.597C282.252 228.597 281.454 228.303 280.838 227.715C280.222 227.118 279.914 226.329 279.914 225.349C279.914 224.322 280.25 223.496 280.922 222.871C281.594 222.236 282.495 221.919 283.624 221.919C284.912 221.919 285.883 222.325 286.536 223.137C287.199 223.949 287.53 225.092 287.53 226.567V227.085C287.53 228.728 287.18 229.992 286.48 230.879C285.78 231.766 284.786 232.209 283.498 232.209ZM282.252 226.749C282.597 227.113 283.055 227.295 283.624 227.295C284.193 227.295 284.655 227.122 285.01 226.777C285.374 226.432 285.556 225.984 285.556 225.433C285.556 224.77 285.379 224.252 285.024 223.879C284.669 223.496 284.198 223.305 283.61 223.305C283.05 223.305 282.597 223.487 282.252 223.851C281.916 224.215 281.748 224.696 281.748 225.293C281.748 225.9 281.916 226.385 282.252 226.749Z" fill="black"/>
<path d="M303.232 232.083V223.921L301.118 225.363V223.725L303.442 222.073H305.108V232.083H303.232ZM312.262 230.739C313.783 230.739 314.544 229.591 314.544 227.295V226.805C314.544 225.732 314.343 224.896 313.942 224.299C313.54 223.692 312.971 223.389 312.234 223.389C311.478 223.389 310.899 223.683 310.498 224.271C310.096 224.859 309.896 225.708 309.896 226.819V227.323C309.896 228.443 310.101 229.292 310.512 229.871C310.922 230.45 311.506 230.739 312.262 230.739ZM312.22 232.223C310.941 232.223 309.919 231.784 309.154 230.907C308.398 230.03 308.02 228.84 308.02 227.337V226.833C308.02 225.33 308.402 224.14 309.168 223.263C309.933 222.376 310.95 221.933 312.22 221.933C313.498 221.933 314.516 222.372 315.272 223.249C316.028 224.117 316.406 225.298 316.406 226.791V227.295C316.406 228.807 316.032 230.006 315.286 230.893C314.539 231.78 313.517 232.223 312.22 232.223Z" fill="black"/>
<path d="M329.982 232.083V223.921L327.868 225.363V223.725L330.192 222.073H331.858V232.083H329.982ZM336.549 232.083V223.921L334.435 225.363V223.725L336.759 222.073H338.425V232.083H336.549Z" fill="black"/>
<path d="M353.522 232.083V223.921L351.408 225.363V223.725L353.732 222.073H355.398V232.083H353.522ZM357.805 232.083V231.747L361.585 227.757C362.603 226.684 363.111 225.736 363.111 224.915C363.111 224.439 362.981 224.066 362.719 223.795C362.458 223.524 362.089 223.389 361.613 223.389C360.577 223.389 359.98 224.052 359.821 225.377H358.113C358.179 224.285 358.524 223.44 359.149 222.843C359.775 222.236 360.615 221.933 361.669 221.933C362.696 221.933 363.503 222.204 364.091 222.745C364.679 223.277 364.973 223.991 364.973 224.887C364.973 226.016 364.32 227.211 363.013 228.471L360.787 230.641H365.043V232.083H357.805Z" fill="black"/>
<path d="M379.202 232.083V223.921L377.088 225.363V223.725L379.412 222.073H381.078V232.083H379.202ZM387.531 232.223C386.365 232.223 385.455 231.929 384.801 231.341C384.157 230.753 383.812 229.969 383.765 228.989H385.459C385.515 229.549 385.707 229.997 386.033 230.333C386.36 230.66 386.845 230.823 387.489 230.823C388.124 230.823 388.6 230.683 388.917 230.403C389.235 230.114 389.393 229.712 389.393 229.199C389.393 228.107 388.791 227.561 387.587 227.561H386.817V226.231H387.531C388.642 226.231 389.197 225.741 389.197 224.761C389.197 224.341 389.062 224 388.791 223.739C388.53 223.478 388.147 223.347 387.643 223.347C387.121 223.347 386.691 223.496 386.355 223.795C386.029 224.084 385.837 224.486 385.781 224.999H384.129C384.176 224.103 384.517 223.37 385.151 222.801C385.786 222.222 386.626 221.933 387.671 221.933C388.689 221.933 389.491 222.19 390.079 222.703C390.677 223.216 390.975 223.856 390.975 224.621C390.975 225.666 390.434 226.394 389.351 226.805C389.949 226.945 390.42 227.225 390.765 227.645C391.111 228.056 391.283 228.583 391.283 229.227C391.283 230.151 390.943 230.884 390.261 231.425C389.589 231.957 388.679 232.223 387.531 232.223Z" fill="black"/>
<path d="M133.726 232.223C132.559 232.223 131.649 231.929 130.996 231.341C130.352 230.753 130.007 229.969 129.96 228.989H131.654C131.71 229.549 131.901 229.997 132.228 230.333C132.555 230.66 133.04 230.823 133.684 230.823C134.319 230.823 134.795 230.683 135.112 230.403C135.429 230.114 135.588 229.712 135.588 229.199C135.588 228.107 134.986 227.561 133.782 227.561H133.012V226.231H133.726C134.837 226.231 135.392 225.741 135.392 224.761C135.392 224.341 135.257 224 134.986 223.739C134.725 223.478 134.342 223.347 133.838 223.347C133.315 223.347 132.886 223.496 132.55 223.795C132.223 224.084 132.032 224.486 131.976 224.999H130.324C130.371 224.103 130.711 223.37 131.346 222.801C131.981 222.222 132.821 221.933 133.866 221.933C134.883 221.933 135.686 222.19 136.274 222.703C136.871 223.216 137.17 223.856 137.17 224.621C137.17 225.666 136.629 226.394 135.546 226.805C136.143 226.945 136.615 227.225 136.96 227.645C137.305 228.056 137.478 228.583 137.478 229.227C137.478 230.151 137.137 230.884 136.456 231.425C135.784 231.957 134.874 232.223 133.726 232.223Z" fill="black"/>
<path d="M159.47 232.083V230.053H154.514V229.395L158.938 222.073H161.276V228.667H162.62V230.053H161.276V232.083H159.47ZM156.502 228.667H159.498V223.487L156.502 228.667Z" fill="black"/>
<path d="M105.07 232.083V231.747L108.85 227.757C109.867 226.684 110.376 225.736 110.376 224.915C110.376 224.439 110.245 224.066 109.984 223.795C109.722 223.524 109.354 223.389 108.878 223.389C107.842 223.389 107.244 224.052 107.086 225.377H105.378C105.443 224.285 105.788 223.44 106.414 222.843C107.039 222.236 107.879 221.933 108.934 221.933C109.96 221.933 110.768 222.204 111.356 222.745C111.944 223.277 112.238 223.991 112.238 224.887C112.238 226.016 111.584 227.211 110.278 228.471L108.052 230.641H112.308V232.083H105.07Z" fill="black"/>
<rect x="58.8721" y="12.7955" width="2.27102" height="233.558" fill="black"/>
<rect x="21.3999" y="210.143" width="389.48" height="1.81052" fill="black"/>
<rect x="83.853" y="207.427" width="2.27102" height="7.24209" fill="black"/>
<rect x="158.797" y="207.427" width="2.27102" height="7.24209" fill="black"/>
<rect x="233.741" y="207.427" width="2.27102" height="7.24209" fill="black"/>
<rect x="308.685" y="207.427" width="2.27102" height="7.24209" fill="black"/>
<rect x="108.834" y="207.427" width="2.27102" height="7.24209" fill="black"/>
<rect x="183.777" y="207.427" width="2.27102" height="7.24209" fill="black"/>
<rect x="258.721" y="207.427" width="2.27102" height="7.24209" fill="black"/>
<rect x="333.665" y="207.427" width="2.27102" height="7.24209" fill="black"/>
<rect x="133.815" y="207.427" width="2.27102" height="7.24209" fill="black"/>
<rect x="208.759" y="207.427" width="2.27102" height="7.24209" fill="black"/>
<rect x="283.703" y="207.427" width="2.27102" height="7.24209" fill="black"/>
<rect x="358.646" y="207.427" width="2.27102" height="7.24209" fill="black"/>
<rect x="383.628" y="207.427" width="2.27102" height="7.24209" fill="black"/>
<rect x="55.4653" y="190.227" width="9.08408" height="1.81052" fill="black"/>
<rect x="55.4653" y="170.311" width="9.08408" height="1.81052" fill="black"/>
<rect x="55.4653" y="150.395" width="9.08408" height="1.81052" fill="black"/>
<rect x="55.4653" y="130.48" width="9.08408" height="1.81052" fill="black"/>
<rect x="55.4653" y="110.564" width="9.08408" height="1.81052" fill="black"/>
<rect x="55.4653" y="90.6481" width="9.08408" height="1.81052" fill="black"/>
<rect x="55.4653" y="70.7323" width="9.08408" height="1.81052" fill="black"/>
<rect x="55.4653" y="50.8165" width="9.08408" height="1.81052" fill="black"/>
<rect x="55.4653" y="30.9008" width="9.08408" height="1.81052" fill="black"/>
<path d="M83.8818 232.083V223.921L81.7678 225.363V223.725L84.0918 222.073H85.7578V232.083H83.8818Z" fill="black"/>
<path d="M183.834 232.223C182.704 232.223 181.841 231.948 181.244 231.397C180.646 230.846 180.32 230.118 180.264 229.213H182C182.084 229.726 182.256 230.118 182.518 230.389C182.788 230.65 183.222 230.781 183.82 230.781C184.389 230.781 184.832 230.599 185.15 230.235C185.467 229.871 185.626 229.376 185.626 228.751C185.626 228.144 185.462 227.664 185.136 227.309C184.809 226.954 184.37 226.777 183.82 226.777C182.933 226.777 182.238 227.066 181.734 227.645H180.782L180.866 222.073H186.942V223.543H182.294L182.28 226.259C182.765 225.699 183.484 225.419 184.436 225.419C185.35 225.419 186.092 225.722 186.662 226.329C187.231 226.926 187.516 227.743 187.516 228.779C187.516 229.824 187.175 230.66 186.494 231.285C185.812 231.91 184.926 232.223 183.834 232.223Z" fill="black"/>
<path d="M209.004 232.223C207.632 232.223 206.633 231.803 206.008 230.963C205.392 230.114 205.084 228.97 205.084 227.533V227.295C205.084 225.606 205.467 224.29 206.232 223.347C206.997 222.404 207.996 221.933 209.228 221.933C210.152 221.933 210.894 222.157 211.454 222.605C212.023 223.053 212.369 223.711 212.49 224.579H210.754C210.661 224.178 210.493 223.879 210.25 223.683C210.017 223.478 209.671 223.375 209.214 223.375C208.533 223.375 207.987 223.674 207.576 224.271C207.175 224.868 206.96 225.727 206.932 226.847C207.445 225.988 208.271 225.559 209.41 225.559C210.371 225.559 211.16 225.862 211.776 226.469C212.392 227.066 212.7 227.85 212.7 228.821C212.7 229.838 212.364 230.66 211.692 231.285C211.029 231.91 210.133 232.223 209.004 232.223ZM208.976 230.851C209.536 230.851 209.989 230.669 210.334 230.305C210.679 229.941 210.852 229.46 210.852 228.863C210.852 228.256 210.679 227.771 210.334 227.407C209.998 227.034 209.545 226.847 208.976 226.847C208.407 226.847 207.94 227.029 207.576 227.393C207.221 227.748 207.044 228.2 207.044 228.751C207.044 229.404 207.221 229.918 207.576 230.291C207.931 230.664 208.397 230.851 208.976 230.851Z" fill="black"/>
<path d="M23.9859 215.974V221.518H24.9219V224.638H23.9019V222.406H19.4259V224.638H18.4179V221.518H18.9339C19.3019 221.006 19.6059 220.45 19.8459 219.85C20.0939 219.242 20.2779 218.61 20.3979 217.954C20.5259 217.29 20.5939 216.63 20.6019 215.974H23.9859ZM21.5379 216.802C21.5059 217.346 21.4219 217.91 21.2859 218.494C21.1499 219.07 20.9739 219.622 20.7579 220.15C20.5499 220.678 20.3059 221.134 20.0259 221.518H22.9659V216.802H21.5379ZM27.2386 215.974V218.65H30.7306V215.974H31.7866V222.406H30.7306V219.538H27.2386V222.406H26.1826V215.974H27.2386ZM34.8192 219.898C34.8192 219.97 34.8152 220.074 34.8072 220.21C34.8072 220.338 34.8032 220.478 34.7952 220.63C34.7872 220.774 34.7792 220.914 34.7712 221.05C34.7632 221.178 34.7552 221.282 34.7472 221.362L38.1912 215.974H39.4872V222.406H38.5032V218.614C38.5032 218.486 38.5032 218.318 38.5032 218.11C38.5112 217.902 38.5192 217.698 38.5272 217.498C38.5352 217.29 38.5432 217.134 38.5512 217.03L35.1312 222.406H33.8232V215.974H34.8192V219.898Z" fill="black"/>
<path d="M23.5699 228.841V234.201H22.6899V229.591H19.9199V234.201H19.0399V228.841H23.5699ZM30.1302 228.741C30.7902 228.741 31.3202 228.971 31.7202 229.431C32.1268 229.891 32.3302 230.585 32.3302 231.511C32.3302 232.118 32.2368 232.631 32.0502 233.051C31.8702 233.465 31.6135 233.778 31.2802 233.991C30.9535 234.198 30.5668 234.301 30.1202 234.301C29.8468 234.301 29.6035 234.265 29.3902 234.191C29.1768 234.118 28.9935 234.025 28.8402 233.911C28.6935 233.791 28.5668 233.661 28.4602 233.521H28.4002C28.4135 233.635 28.4268 233.778 28.4402 233.951C28.4535 234.125 28.4602 234.275 28.4602 234.401V236.601H27.5802V228.841H28.3002L28.4202 229.571H28.4602C28.5668 229.418 28.6935 229.278 28.8402 229.151C28.9935 229.025 29.1735 228.925 29.3802 228.851C29.5935 228.778 29.8435 228.741 30.1302 228.741ZM29.9702 229.481C29.6102 229.481 29.3202 229.551 29.1002 229.691C28.8802 229.825 28.7202 230.028 28.6202 230.301C28.5202 230.575 28.4668 230.921 28.4602 231.341V231.511C28.4602 231.951 28.5068 232.325 28.6002 232.631C28.6935 232.938 28.8502 233.171 29.0702 233.331C29.2968 233.491 29.6035 233.571 29.9902 233.571C30.3168 233.571 30.5835 233.481 30.7902 233.301C31.0035 233.121 31.1602 232.878 31.2602 232.571C31.3668 232.258 31.4202 231.901 31.4202 231.501C31.4202 230.888 31.3002 230.398 31.0602 230.031C30.8268 229.665 30.4635 229.481 29.9702 229.481ZM40.6925 231.511C40.6925 231.958 40.6325 232.355 40.5125 232.701C40.3992 233.041 40.2325 233.331 40.0125 233.571C39.7992 233.811 39.5359 233.995 39.2225 234.121C38.9159 234.241 38.5725 234.301 38.1925 234.301C37.8392 234.301 37.5125 234.241 37.2125 234.121C36.9125 233.995 36.6525 233.811 36.4325 233.571C36.2125 233.331 36.0392 233.041 35.9125 232.701C35.7925 232.355 35.7325 231.958 35.7325 231.511C35.7325 230.918 35.8325 230.418 36.0325 230.011C36.2325 229.598 36.5192 229.285 36.8925 229.071C37.2659 228.851 37.7092 228.741 38.2225 228.741C38.7092 228.741 39.1359 228.851 39.5025 229.071C39.8759 229.285 40.1659 229.598 40.3725 230.011C40.5859 230.418 40.6925 230.918 40.6925 231.511ZM36.6425 231.511C36.6425 231.931 36.6959 232.298 36.8025 232.611C36.9159 232.918 37.0892 233.155 37.3225 233.321C37.5559 233.488 37.8525 233.571 38.2125 233.571C38.5725 233.571 38.8692 233.488 39.1025 233.321C39.3359 233.155 39.5059 232.918 39.6125 232.611C39.7259 232.298 39.7825 231.931 39.7825 231.511C39.7825 231.085 39.7259 230.721 39.6125 230.421C39.4992 230.121 39.3259 229.891 39.0925 229.731C38.8659 229.565 38.5692 229.481 38.2025 229.481C37.6559 229.481 37.2592 229.661 37.0125 230.021C36.7659 230.381 36.6425 230.878 36.6425 231.511ZM21.1899 245.301C20.7166 245.301 20.2933 245.205 19.9199 245.011C19.5533 244.818 19.2633 244.518 19.0499 244.111C18.8433 243.705 18.7399 243.185 18.7399 242.551C18.7399 241.891 18.8499 241.355 19.0699 240.941C19.2899 240.528 19.5866 240.225 19.9599 240.031C20.3399 239.838 20.7699 239.741 21.2499 239.741C21.5233 239.741 21.7866 239.771 22.0399 239.831C22.2933 239.885 22.4999 239.951 22.6599 240.031L22.3899 240.761C22.2299 240.701 22.0433 240.645 21.8299 240.591C21.6166 240.538 21.4166 240.511 21.2299 240.511C20.8699 240.511 20.5733 240.588 20.3399 240.741C20.1066 240.895 19.9333 241.121 19.8199 241.421C19.7066 241.721 19.6499 242.095 19.6499 242.541C19.6499 242.968 19.7066 243.331 19.8199 243.631C19.9333 243.931 20.1033 244.158 20.3299 244.311C20.5566 244.465 20.8399 244.541 21.1799 244.541C21.4733 244.541 21.7299 244.511 21.9499 244.451C22.1766 244.391 22.3833 244.318 22.5699 244.231V245.011C22.3899 245.105 22.1899 245.175 21.9699 245.221C21.7566 245.275 21.4966 245.301 21.1899 245.301ZM31.8946 239.841V245.201H31.1046V241.781C31.1046 241.641 31.108 241.495 31.1146 241.341C31.128 241.188 31.1413 241.038 31.1546 240.891H31.1246L29.3746 245.201H28.6346L26.9346 240.891H26.9046C26.918 241.038 26.9246 241.188 26.9246 241.341C26.9313 241.495 26.9346 241.651 26.9346 241.811V245.201H26.1446V239.841H27.3146L29.0046 244.151L30.7246 239.841H31.8946ZM40.5656 242.511C40.5656 242.958 40.5056 243.355 40.3856 243.701C40.2722 244.041 40.1056 244.331 39.8856 244.571C39.6722 244.811 39.4089 244.995 39.0956 245.121C38.7889 245.241 38.4456 245.301 38.0656 245.301C37.7122 245.301 37.3856 245.241 37.0856 245.121C36.7856 244.995 36.5256 244.811 36.3056 244.571C36.0856 244.331 35.9122 244.041 35.7856 243.701C35.6656 243.355 35.6056 242.958 35.6056 242.511C35.6056 241.918 35.7056 241.418 35.9056 241.011C36.1056 240.598 36.3922 240.285 36.7656 240.071C37.1389 239.851 37.5822 239.741 38.0956 239.741C38.5822 239.741 39.0089 239.851 39.3756 240.071C39.7489 240.285 40.0389 240.598 40.2456 241.011C40.4589 241.418 40.5656 241.918 40.5656 242.511ZM36.5156 242.511C36.5156 242.931 36.5689 243.298 36.6756 243.611C36.7889 243.918 36.9622 244.155 37.1956 244.321C37.4289 244.488 37.7256 244.571 38.0856 244.571C38.4456 244.571 38.7422 244.488 38.9756 244.321C39.2089 244.155 39.3789 243.918 39.4856 243.611C39.5989 243.298 39.6556 242.931 39.6556 242.511C39.6556 242.085 39.5989 241.721 39.4856 241.421C39.3722 241.121 39.1989 240.891 38.9656 240.731C38.7389 240.565 38.4422 240.481 38.0756 240.481C37.5289 240.481 37.1322 240.661 36.8856 241.021C36.6389 241.381 36.5156 241.878 36.5156 242.511ZM22.7399 251.581H20.9899V256.201H20.1199V251.581H18.3899V250.841H22.7399V251.581ZM28.6458 250.741C29.3058 250.741 29.8358 250.971 30.2358 251.431C30.6425 251.891 30.8458 252.585 30.8458 253.511C30.8458 254.118 30.7525 254.631 30.5658 255.051C30.3858 255.465 30.1291 255.778 29.7958 255.991C29.4691 256.198 29.0825 256.301 28.6358 256.301C28.3625 256.301 28.1191 256.265 27.9058 256.191C27.6925 256.118 27.5091 256.025 27.3558 255.911C27.2091 255.791 27.0825 255.661 26.9758 255.521H26.9158C26.9291 255.635 26.9425 255.778 26.9558 255.951C26.9691 256.125 26.9758 256.275 26.9758 256.401V258.601H26.0958V250.841H26.8158L26.9358 251.571H26.9758C27.0825 251.418 27.2091 251.278 27.3558 251.151C27.5091 251.025 27.6891 250.925 27.8958 250.851C28.1091 250.778 28.3591 250.741 28.6458 250.741ZM28.4858 251.481C28.1258 251.481 27.8358 251.551 27.6158 251.691C27.3958 251.825 27.2358 252.028 27.1358 252.301C27.0358 252.575 26.9825 252.921 26.9758 253.341V253.511C26.9758 253.951 27.0225 254.325 27.1158 254.631C27.2091 254.938 27.3658 255.171 27.5858 255.331C27.8125 255.491 28.1191 255.571 28.5058 255.571C28.8325 255.571 29.0991 255.481 29.3058 255.301C29.5191 255.121 29.6758 254.878 29.7758 254.571C29.8825 254.258 29.9358 253.901 29.9358 253.501C29.9358 252.888 29.8158 252.398 29.5758 252.031C29.3425 251.665 28.9791 251.481 28.4858 251.481ZM34.5481 256.201V250.841H35.4281V253.041H36.8181C37.2848 253.041 37.6681 253.098 37.9681 253.211C38.2681 253.325 38.4915 253.495 38.6381 253.721C38.7848 253.941 38.8581 254.221 38.8581 254.561C38.8581 254.895 38.7848 255.185 38.6381 255.431C38.4981 255.678 38.2748 255.868 37.9681 256.001C37.6681 256.135 37.2715 256.201 36.7781 256.201H34.5481ZM36.6981 255.491C37.0781 255.491 37.3881 255.428 37.6281 255.301C37.8681 255.168 37.9881 254.938 37.9881 254.611C37.9881 254.285 37.8781 254.065 37.6581 253.951C37.4381 253.831 37.1215 253.771 36.7081 253.771H35.4281V255.491H36.6981ZM39.7481 256.201V250.841H40.6281V256.201H39.7481Z" fill="black"/>
<path d="M14.98 225.001H50.29M50.29 225.001L43.7977 221.789M50.29 225.001L43.7977 228.613" stroke="black"/>
<path d="M52.1779 243.968L52.1777 215.865M52.1777 215.865L48.235 221.083M52.1777 215.865L56.7942 220.993" stroke="black"/>
<path d="M87.205 152.693L86.4602 152.026L86.3563 152.142L86.2926 152.284L87.205 152.693ZM105.93 131.794L106.364 130.893L105.687 130.567L105.185 131.127L105.93 131.794ZM128.935 142.883L128.501 143.784L128.769 143.913L129.064 143.875L128.935 142.883ZM155.15 139.471L155.407 138.505L155.216 138.454L155.021 138.48L155.15 139.471ZM184.04 147.149L183.783 148.115L184.333 148.261L184.74 147.863L184.04 147.149ZM209.72 121.984L209.897 121L209.389 120.909L209.02 121.27L209.72 121.984ZM231.12 125.823L232.015 125.377L231.791 124.927L231.297 124.838L231.12 125.823ZM258.94 181.696L258.045 182.142L258.369 182.793L259.088 182.685L258.94 181.696ZM284.62 177.858L284.768 178.847L284.887 178.829L284.998 178.784L284.62 177.858ZM306.555 168.901L306.233 167.954L306.205 167.964L306.177 167.975L306.555 168.901ZM335.445 159.091L335.767 160.038L335.898 159.993L336.012 159.915L335.445 159.091ZM358.985 142.883L347.474 143.799L354.023 153.31L358.985 142.883ZM61.9024 211.536L88.1174 153.103L86.2926 152.284L60.0776 210.717L61.9024 211.536ZM87.9498 153.361L106.675 132.461L105.185 131.127L86.4602 152.026L87.9498 153.361ZM105.496 132.695L128.501 143.784L129.369 141.983L106.364 130.893L105.496 132.695ZM129.064 143.875L155.279 140.463L155.021 138.48L128.806 141.892L129.064 143.875ZM154.893 140.438L183.783 148.115L184.297 146.182L155.407 138.505L154.893 140.438ZM184.74 147.863L210.42 122.698L209.02 121.27L183.34 146.434L184.74 147.863ZM209.543 122.968L230.943 126.807L231.297 124.838L209.897 121L209.543 122.968ZM230.225 126.268L258.045 182.142L259.835 181.251L232.015 125.377L230.225 126.268ZM259.088 182.685L284.768 178.847L284.472 176.869L258.792 180.707L259.088 182.685ZM284.998 178.784L306.933 169.827L306.177 167.975L284.242 176.932L284.998 178.784ZM306.877 169.848L335.767 160.038L335.123 158.144L306.233 167.954L306.877 169.848ZM336.012 159.915L352.139 148.811L351.005 147.164L334.878 158.267L336.012 159.915Z" fill="#FF0000"/>
</svg>
